
@startuml sample

!define Table(name,desc) class name as "desc" << (T,#FFAAAA) >>

!define primary_key(x) <b>x</b>
!define unique(x) <color:green>x</color>
!define not_null(x) <u>x</u>

hide methods
hide stereotypes

' Tables ...

Table(locations, "locations") {
primary_key(not_null(location_id)) NUMBER
not_null(city) VARCHAR2
postal_code VARCHAR2
state_province VARCHAR2
street_address VARCHAR2
}

Table(regions, "regions") {
primary_key(not_null(region_id)) NUMBER
region_name VARCHAR2
}

Table(countries, "countries") {
country_name VARCHAR2
region_id NUMBER
}

' Relationships ...

regions --> countries 
countries --> locations 


@enduml